{
    "asset" : {
        "generator" : "Khronos glTF Blender I/O v1.4.40",
        "version" : "2.0"
    },
    "scene" : 0,
    "scenes" : [
        {
            "name" : "Scene",
            "nodes" : [
                0
            ]
        }
    ],
    "nodes" : [
        {
            "mesh" : 0,
            "name" : "Console",
            "rotation" : [
                -0.12195732444524765,
                0,
                0,
                0.9925353527069092
            ],
            "translation" : [
                0.1875,
                0.3125,
                0.625
            ]
        }
    ],
    "materials" : [
        {
            "alphaCutoff" : 0,
            "alphaMode" : "MASK",
            "doubleSided" : true,
            "emissiveFactor" : [
                1,
                1,
                1
            ],
            "emissiveTexture" : {
                "index" : 0,
                "texCoord" : 0
            },
            "name" : "console",
            "pbrMetallicRoughness" : {}
        }
    ],
    "meshes" : [
        {
            "name" : "Cube",
            "primitives" : [
                {
                    "attributes" : {
                        "POSITION" : 0,
                        "NORMAL" : 1,
                        "TEXCOORD_0" : 2
                    },
                    "indices" : 3,
                    "material" : 0
                }
            ]
        }
    ],
    "textures" : [
        {
            "sampler" : 0,
            "source" : 0
        }
    ],
    "images" : [
        {
            "bufferView" : 4,
            "mimeType" : "image/png",
            "name" : "console"
        }
    ],
    "accessors" : [
        {
            "bufferView" : 0,
            "componentType" : 5126,
            "count" : 297,
            "max" : [
                0.7754430770874023,
                2.944514274597168,
                -0.2521822452545166
            ],
            "min" : [
                -1.2245569229125977,
                0.44451427459716797,
                -0.7521822452545166
            ],
            "type" : "VEC3"
        },
        {
            "bufferView" : 1,
            "componentType" : 5126,
            "count" : 297,
            "type" : "VEC3"
        },
        {
            "bufferView" : 2,
            "componentType" : 5126,
            "count" : 297,
            "type" : "VEC2"
        },
        {
            "bufferView" : 3,
            "componentType" : 5123,
            "count" : 468,
            "type" : "SCALAR"
        }
    ],
    "bufferViews" : [
        {
            "buffer" : 0,
            "byteLength" : 3564,
            "byteOffset" : 0
        },
        {
            "buffer" : 0,
            "byteLength" : 3564,
            "byteOffset" : 3564
        },
        {
            "buffer" : 0,
            "byteLength" : 2376,
            "byteOffset" : 7128
        },
        {
            "buffer" : 0,
            "byteLength" : 936,
            "byteOffset" : 9504
        },
        {
            "buffer" : 0,
            "byteLength" : 986,
            "byteOffset" : 10440
        }
    ],
    "samplers" : [
        {
            "magFilter" : 9728,
            "minFilter" : 9984
        }
    ],
    "buffers" : [
        {
            "byteLength" : 11428,
            "uri" : "data:application/octet-stream;base64,"
        }
    ]
}
